<svg xmlns="http://www.w3.org/2000/svg" fill="none" viewBox="0 0 107 107">
  <path fill="#999" d="M18.015 21.22a5 5 0 0 0 4.993-4.993 5 5 0 0 0-4.993-4.993 5 5 0 0 0-4.994 4.993 5 5 0 0 0 4.994 4.994Zm0-7.133c1.18 0 2.14.96 2.14 2.14 0 1.18-.96 2.14-2.14 2.14-1.18 0-2.14-.96-2.14-2.14 0-1.18.96-2.14 2.14-2.14ZM82.93 40.48a5 5 0 0 0 4.993 4.994 5 5 0 0 0 4.993-4.993 5 5 0 0 0-4.993-4.994 5 5 0 0 0-4.993 4.994Zm4.993-2.14c1.18 0 2.14.96 2.14 2.14 0 1.18-.96 2.14-2.14 2.14-1.18 0-2.14-.96-2.14-2.14 0-1.18.96-2.14 2.14-2.14Zm5.706-13.364a1.615 1.615 0 1 0 0-3.23 1.615 1.615 0 0 0 0 3.23Zm-68.481 5.707a1.615 1.615 0 1 0 0-3.231 1.615 1.615 0 0 0 0 3.23ZM77.873 18.43a1.422 1.422 0 0 0 2.017 0l1.612-1.612 1.613 1.612a1.422 1.422 0 0 0 2.017 0 1.426 1.426 0 0 0 0-2.017L83.52 14.8l1.612-1.613a1.426 1.426 0 1 0-2.017-2.017l-1.613 1.612-1.612-1.612a1.426 1.426 0 1 0-2.017 2.017l1.612 1.613-1.612 1.612a1.426 1.426 0 0 0 0 2.017ZM12.246 48.39a1.422 1.422 0 0 0 2.017 0l1.612-1.612 1.613 1.612a1.423 1.423 0 0 0 2.017 0 1.426 1.426 0 0 0 0-2.017l-1.612-1.612 1.612-1.613a1.426 1.426 0 1 0-2.017-2.017l-1.613 1.612-1.612-1.612a1.426 1.426 0 1 0-2.017 2.017l1.612 1.613-1.612 1.612a1.426 1.426 0 0 0 0 2.017Zm48.569.65a1.427 1.427 0 1 0 0-2.853 1.427 1.427 0 0 0 0 2.854Zm-14.265 0a1.427 1.427 0 1 0 0-2.853 1.427 1.427 0 0 0 0 2.854Z"/>
  <path fill="#999" d="M93.058 70.726c-1.81-1.358-1.962-3.552-2.137-6.092-.275-3.96-.616-8.886-8.528-9.876-4.032-.5-8.03.792-11.262 3.644-2.686 2.372-4.583 5.608-5.467 9.108l-5.561-2.527v-1.15c0-.014-.008-.025-.008-.038a21.357 21.357 0 0 0 11.296-13.33c.948.024 1.822-.23 2.684-.768 1.324-.826 2.22-2.17 2.395-3.596a5.015 5.015 0 0 0-1.212-3.934 5.006 5.006 0 0 0-2.422-1.51c-.003-.25-.013-1.161-.016-1.256.07-.172.123-6.36.123-6.36.33-.039.652-.099.956-.204 1.07-.369 1.886-1.127 2.424-2.251h.002c1.856-3.878-1.461-9.373-7.762-13.603a4.94 4.94 0 0 0 .085-3.48 4.964 4.964 0 0 0-2.552-2.843 4.946 4.946 0 0 0-6.476 2.04c-7.246-2.259-13.606-1.399-15.465 2.48a4.01 4.01 0 0 0-.305 2.67c-6.106 2.792-9.452 8.07-9.426 14.958l.018 2.356c.014 1.333.049 3.83.075 3.942 0 .021.015 1.2.015 1.549a4.96 4.96 0 0 0-2.275 1.351 4.961 4.961 0 0 0-1.396 3.649c.053 1.527.92 3 2.315 3.943.882.595 1.767.886 2.728.87 1.492 5.452 5.111 10.027 9.94 12.805-.001.012-.007.022-.007.034v1.676l-11.37 5.167c-5.226 2.376-8.604 7.684-8.604 13.521v11.735c0 .79.638 1.427 1.427 1.427h51.36c.788 0 1.427-.638 1.427-1.427v-6.568a17.15 17.15 0 0 0 2.14.149c6.301 0 12.983-4.079 14.592-8.905.651-1.955 1.03-5.77-3.751-9.356ZM63.226 13.144c.54-.19 1.12-.156 1.634.088a2.138 2.138 0 0 1 1.187 2.217 35.676 35.676 0 0 0-1.803-.931 35.777 35.777 0 0 0-1.838-.815 2.1 2.1 0 0 1 .82-.559Zm-16.499 3.267c.643-1.339 2.647-2.118 5.459-2.118 2.938 0 6.758.85 10.827 2.798 7.96 3.815 12.047 9.524 10.736 12.263-.262.548-.556.708-.783.788-1.66.568-5.6-1.381-9.779-3.443-1.027-.507-2.104-1.04-3.23-1.579a292.05 292.05 0 0 0-3.261-1.53c-4.608-2.142-9.37-4.357-10.045-6.24-.112-.31-.09-.592.076-.939Zm-1.427 3.91c2 2.043 5.736 3.784 10.192 5.855 1.053.49 2.139.994 3.233 1.52 1.115.533 2.182 1.06 3.2 1.561 3.237 1.6 5.927 2.924 8.164 3.508v5.395c-4.27 3.21-9.096 4.426-13.66 3.428-4.09-.893-7.482-3.485-9.305-7.112a1.427 1.427 0 0 0-2.297-.354c-1.84 1.895-4.528 3.033-7.517 3.22-.001-.688-.01-1.438-.017-2.206l-.018-2.34c-.027-7.351 4.263-10.832 8.025-12.475Zm-6.922 28.232a1.43 1.43 0 0 0-.686-.95 1.443 1.443 0 0 0-1.167-.116c-.552.188-1.062.214-1.753-.255-.632-.426-1.04-1.07-1.062-1.678a2.129 2.129 0 0 1 .6-1.567c.407-.42.953-.653 1.539-.653.386 0 .77-.165 1.04-.44.395-.407.518-.757.493-2.704 3.052-.171 5.884-1.167 8.103-2.852 2.333 3.568 6.013 6.095 10.336 7.038 1.248.273 2.509.409 3.773.409 3.548-.002 7.107-1.082 10.419-3.139.054.652.184.964.473 1.256.267.272.648.432 1.03.432a2.139 2.139 0 0 1 2.123 2.418c-.073.58-.474 1.149-1.073 1.523-.602.375-1.112.432-1.757.205a1.43 1.43 0 0 0-1.87 1.04c-1.389 6.38-6.103 11.59-12.305 13.6l-.63.206c-1.773.575-3.586.596-5.238.063a18.437 18.437 0 0 1-12.388-13.835ZM49.89 65.105c1.081.348 2.206.52 3.347.52 1.21 0 2.438-.195 3.647-.586l.364-.119v.527c0 2.36-1.92 4.28-4.28 4.28-2.36 0-4.28-1.92-4.28-4.28v-.815c.401.156.789.34 1.202.472ZM77.222 93.98h-8.56v-7.134a1.426 1.426 0 1 0-2.853 0v7.134H38.702v-7.134a1.426 1.426 0 1 0-2.853 0v7.134h-7.133V83.672c0-4.721 2.72-9.01 6.931-10.924l10.652-4.841c1.007 2.72 3.605 4.674 6.67 4.674s5.663-1.955 6.67-4.675l5.536 2.516c-.04.48-.08.962-.08 1.445 0 7.704 5.116 14.23 12.127 16.373v5.74Zm16.88-14.8c-1.214 3.638-6.88 6.953-11.886 6.953-7.867 0-14.267-6.4-14.267-14.267 0-4.29 1.896-8.523 5.071-11.325 2.246-1.983 4.93-3.036 7.678-3.036.446 0 .893.027 1.34.083 5.583.698 5.773 3.443 6.036 7.24.195 2.83.417 6.038 3.273 8.18C93.9 74.923 94.827 77 94.1 79.18Z"/>
  <path fill="#999" d="M87.923 73.352a4.226 4.226 0 0 0-4.222 4.222 4.226 4.226 0 0 0 4.222 4.22 4.226 4.226 0 0 0 4.221-4.22 4.226 4.226 0 0 0-4.221-4.222Zm0 5.589a1.37 1.37 0 0 1-1.368-1.367 1.37 1.37 0 0 1 1.368-1.368 1.37 1.37 0 0 1 1.368 1.368 1.37 1.37 0 0 1-1.368 1.367Zm-8.56-19.368a3.738 3.738 0 0 0-3.734 3.734 3.738 3.738 0 0 0 3.734 3.734 3.738 3.738 0 0 0 3.734-3.734 3.738 3.738 0 0 0-3.734-3.734Zm0 4.615a.882.882 0 0 1-.88-.88c0-.486.395-.881.88-.881s.88.395.88.88-.395.88-.88.88Zm-2.686 6.966a3.738 3.738 0 0 0-3.734-3.734 3.738 3.738 0 0 0-3.734 3.734 3.737 3.737 0 0 0 3.734 3.734 3.738 3.738 0 0 0 3.734-3.734Zm-3.734.88a.883.883 0 0 1-.88-.88c0-.485.395-.88.88-.88s.88.395.88.88-.395.88-.88.88Zm4.992 4.659a3.738 3.738 0 0 0-3.734 3.734 3.738 3.738 0 0 0 3.734 3.734 3.738 3.738 0 0 0 3.734-3.734 3.738 3.738 0 0 0-3.734-3.734Zm0 4.615a.882.882 0 0 1-.88-.88c0-.486.395-.881.88-.881s.88.395.88.88-.395.88-.88.88ZM21.9 61.72a38.442 38.442 0 0 1-.795-.802l-.001-.001c-1.093-1.144-1.822-2.186-1.822-3.55 0-1.813-.94-2.31-1.502-2.445-2.225-.563-4.83 3.803-6.185 6.443-.813 1.587-1.784 3.808-1.784 5.378 0 2.769 1.526 5.164 3.766 6.461l-.825 18.327c-.067 1.481.451 2.914 1.422 3.928.847.887 1.959 1.375 3.129 1.375s2.282-.488 3.13-1.375c.97-1.014 1.489-2.446 1.422-3.928l-.826-18.327c2.24-1.297 3.767-3.693 3.767-6.46 0-2.156-1.539-3.68-2.895-5.023Zm-5.322-2.95c.265 1.194.846 2.187 1.519 3.042-.504.375-1.002.573-1.488.592-.655-.003-1.365-.305-1.945-.724a23.298 23.298 0 0 1 1.914-2.91Zm2.426 32.89c.032.706-.2 1.373-.634 1.827-.215.226-.575.494-1.067.494s-.853-.268-1.067-.494c-.435-.454-.666-1.121-.634-1.828l.789-17.516c.302.038.6.093.912.093.313 0 .61-.055.912-.093l.789 17.516Zm-1.701-20.277a4.645 4.645 0 0 1-4.64-4.64c0-.404.212-1.264.735-2.504 1.027.658 2.072 1.02 3.127 1.02.064 0 .128-.001.194-.004 1.168-.045 2.282-.504 3.329-1.353 1.03 1.023 1.894 1.922 1.894 2.84a4.645 4.645 0 0 1-4.64 4.64Z"/>
</svg>
